{
  "accessors": [
    {
      "bufferView": 2,
      "componentType": 5126,
      "count": 5060,
      "max": [
        1.0285176038742065,
        1.1118184328079224,
        2.05009126663208
      ],
      "min": [
        -1.0285176038742065,
        -1.203071117401123,
        -1.7723101377487183
      ],
      "type": "VEC3"
    },
    {
      "bufferView": 2,
      "byteOffset": 60720,
      "componentType": 5126,
      "count": 5060,
      "max": [
        1.0,
        1.0,
        1.0
      ],
      "min": [
        -1.0,
        -1.0,
        -1.0
      ],
      "type": "VEC3"
    },
    {
      "bufferView": 3,
      "componentType": 5126,
      "count": 5060,
      "max": [
        0.9999792575836182,
        0.9999999403953552,
        0.8621624708175659,
        1.0
      ],
      "min": [
        -0.9999986886978149,
        -0.9999915361404419,
        -0.9993051886558533,
        -1.0
      ],
      "type": "VEC4"
    },
    {
      "bufferView": 1,
      "componentType": 5126,
      "count": 5060,
      "max": [
        1.0000001192092896,
        0.9524219036102295
      ],
      "min": [
        0.0,
        0.0
      ],
      "type": "VEC2"
    },
    {
      "bufferView": 1,
      "byteOffset": 40480,
      "componentType": 5126,
      "count": 5060,
      "max": [
        1.0000001192092896,
        0.9524219036102295
      ],
      "min": [
        0.0,
        0.0
      ],
      "type": "VEC2"
    },
    {
      "bufferView": 0,
      "componentType": 5125,
      "count": 24288,
      "type": "SCALAR"
    },
    {
      "bufferView": 2,
      "byteOffset": 121440,
      "componentType": 5126,
      "count": 1286,
      "max": [
        0.8088610768318176,
        0.8320293426513672,
        1.026793122291565
      ],
      "min": [
        -0.8088611364364624,
        0.0573282465338707,
        -0.7110862731933594
      ],
      "type": "VEC3"
    },
    {
      "bufferView": 2,
      "byteOffset": 136872,
      "componentType": 5126,
      "count": 1286,
      "max": [
        0.9491023421287537,
        0.9999952912330627,
        0.9995399117469788
      ],
      "min": [
        -0.9491025805473328,
        -0.9999812245368958,
        -0.9993343949317932
      ],
      "type": "VEC3"
    },
    {
      "bufferView": 3,
      "byteOffset": 80960,
      "componentType": 5126,
      "count": 1286,
      "max": [
        0.890324056148529,
        0.9997014999389648,
        0.914677619934082,
        1.0
      ],
      "min": [
        -0.9493734240531921,
        -0.9945313930511475,
        -0.9999980330467224,
        1.0
      ],
      "type": "VEC4"
    },
    {
      "bufferView": 1,
      "byteOffset": 80960,
      "componentType": 5126,
      "count": 1286,
      "max": [
        1.0,
        0.9892575740814209
      ],
      "min": [
        0.0,
        0.0
      ],
      "type": "VEC2"
    },
    {
      "bufferView": 1,
      "byteOffset": 91248,
      "componentType": 5126,
      "count": 1286,
      "max": [
        1.0,
        0.9892575740814209
      ],
      "min": [
        0.0,
        0.0
      ],
      "type": "VEC2"
    },
    {
      "bufferView": 0,
      "byteOffset": 97152,
      "componentType": 5125,
      "count": 6240,
      "type": "SCALAR"
    },
    {
      "bufferView": 2,
      "byteOffset": 152304,
      "componentType": 5126,
      "count": 2424,
      "max": [
        0.9353088736534119,
        3.6535141468048096,
        0.9346988201141357
      ],
      "min": [
        -0.935309112071991,
        -0.16564908623695374,
        -0.9346988797187805
      ],
      "type": "VEC3"
    },
    {
      "bufferView": 2,
      "byteOffset": 181392,
      "componentType": 5126,
      "count": 2424,
      "max": [
        0.9997747540473938,
        1.0,
        0.9997750520706177
      ],
      "min": [
        -0.9997748136520386,
        -1.0,
        -0.9997750520706177
      ],
      "type": "VEC3"
    },
    {
      "bufferView": 3,
      "byteOffset": 101536,
      "componentType": 5126,
      "count": 2424,
      "max": [
        1.0,
        0.8268910050392151,
        0.9999998807907104,
        1.0
      ],
      "min": [
        -1.0,
        -0.8268734216690063,
        -1.0,
        -1.0
      ],
      "type": "VEC4"
    },
    {
      "bufferView": 1,
      "byteOffset": 101536,
      "componentType": 5126,
      "count": 2424,
      "max": [
        0.9856883883476257,
        1.0
      ],
      "min": [
        0.0,
        0.0
      ],
      "type": "VEC2"
    },
    {
      "bufferView": 1,
      "byteOffset": 120928,
      "componentType": 5126,
      "count": 2424,
      "max": [
        0.9856883883476257,
        1.0
      ],
      "min": [
        0.0,
        0.0
      ],
      "type": "VEC2"
    },
    {
      "bufferView": 0,
      "byteOffset": 122112,
      "componentType": 5125,
      "count": 12000,
      "type": "SCALAR"
    },
    {
      "bufferView": 2,
      "byteOffset": 210480,
      "componentType": 5126,
      "count": 4372,
      "max": [
        3.723440647125244,
        1.9930078983306885,
        4.0789666175842285
      ],
      "min": [
        -3.7237889766693115,
        -2.0464107990264893,
        -4.797082901000977
      ],
      "type": "VEC3"
    },
    {
      "bufferView": 2,
      "byteOffset": 262944,
      "componentType": 5126,
      "count": 4372,
      "max": [
        0.9999901652336121,
        1.0,
        0.9999900460243225
      ],
      "min": [
        -0.9999900460243225,
        -1.0,
        -0.9999902844429016
      ],
      "type": "VEC3"
    },
    {
      "bufferView": 3,
      "byteOffset": 140320,
      "componentType": 5126,
      "count": 4372,
      "max": [
        0.9999760389328003,
        0.9999558329582214,
        0.946588397026062,
        1.0
      ],
      "min": [
        -0.9993373155593872,
        -0.9999899864196777,
        -0.9935337901115417,
        1.0
      ],
      "type": "VEC4"
    },
    {
      "bufferView": 1,
      "byteOffset": 140320,
      "componentType": 5126,
      "count": 4372,
      "max": [
        0.9696990251541138,
        1.0
      ],
      "min": [
        0.0,
        0.0
      ],
      "type": "VEC2"
    },
    {
      "bufferView": 1,
      "byteOffset": 175296,
      "componentType": 5126,
      "count": 4372,
      "max": [
        0.9696990251541138,
        1.0
      ],
      "min": [
        0.0,
        0.0
      ],
      "type": "VEC2"
    },
    {
      "bufferView": 0,
      "byteOffset": 170112,
      "componentType": 5125,
      "count": 21216,
      "type": "SCALAR"
    }
  ],
  "asset": {
    "extras": {
      "author": "keeganwalden (https://sketchfab.com/keeganwalden)",
      "license": "CC-BY-NC-SA-4.0 (http://creativecommons.org/licenses/by-nc-sa/4.0/)",
      "source": "https://sketchfab.com/3d-models/teapot-and-teacup-with-saucer-394991e9fee141feb7d2498b7665286d",
      "title": "Teapot and Teacup with saucer"
    },
    "generator": "Sketchfab-10.64.0",
    "version": "2.0"
  },
  "bufferViews": [
    {
      "buffer": 0,
      "byteLength": 254976,
      "name": "floatBufferViews",
      "target": 34963
    },
    {
      "buffer": 0,
      "byteLength": 210272,
      "byteOffset": 254976,
      "byteStride": 8,
      "name": "floatBufferViews",
      "target": 34962
    },
    {
      "buffer": 0,
      "byteLength": 315408,
      "byteOffset": 465248,
      "byteStride": 12,
      "name": "floatBufferViews",
      "target": 34962
    },
    {
      "buffer": 0,
      "byteLength": 210272,
      "byteOffset": 780656,
      "byteStride": 16,
      "name": "floatBufferViews",
      "target": 34962
    }
  ],
  "buffers": [
    {
      "byteLength": 990928,
      "uri": "scene.bin"
    }
  ],
  "images": [
    {
      "uri": "textures/ceramic_baseColor.jpeg"
    },
    {
      "uri": "textures/ceramic_metallicRoughness.png"
    },
    {
      "uri": "textures/ceramic_normal.jpeg"
    }
  ],
  "materials": [
    {
      "doubleSided": true,
      "name": "ceramic",
      "normalTexture": {
        "index": 2
      },
      "pbrMetallicRoughness": {
        "baseColorTexture": {
          "index": 0
        },
        "metallicFactor": 0.0,
        "metallicRoughnessTexture": {
          "index": 1
        }
      }
    }
  ],
  "meshes": [
    {
      "name": "teapot_ceramic_0",
      "primitives": [
        {
          "attributes": {
            "NORMAL": 1,
            "POSITION": 0,
            "TANGENT": 2,
            "TEXCOORD_0": 3,
            "TEXCOORD_1": 4
          },
          "indices": 5,
          "material": 0,
          "mode": 4
        }
      ]
    },
    {
      "name": "teapot_lid_ceramic_0",
      "primitives": [
        {
          "attributes": {
            "NORMAL": 7,
            "POSITION": 6,
            "TANGENT": 8,
            "TEXCOORD_0": 9,
            "TEXCOORD_1": 10
          },
          "indices": 11,
          "material": 0,
          "mode": 4
        }
      ]
    },
    {
      "name": "saucer_ceramic_0",
      "primitives": [
        {
          "attributes": {
            "NORMAL": 13,
            "POSITION": 12,
            "TANGENT": 14,
            "TEXCOORD_0": 15,
            "TEXCOORD_1": 16
          },
          "indices": 17,
          "material": 0,
          "mode": 4
        }
      ]
    },
    {
      "name": "cup_ceramic_0",
      "primitives": [
        {
          "attributes": {
            "NORMAL": 19,
            "POSITION": 18,
            "TANGENT": 20,
            "TEXCOORD_0": 21,
            "TEXCOORD_1": 22
          },
          "indices": 23,
          "material": 0,
          "mode": 4
        }
      ]
    }
  ],
  "nodes": [
    {
      "children": [
        1
      ],
      "matrix": [
        1.0,
        0.0,
        0.0,
        0.0,
        0.0,
        2.220446049250313e-16,
        -1.0,
        0.0,
        0.0,
        1.0,
        2.220446049250313e-16,
        0.0,
        0.0,
        0.0,
        0.0,
        1.0
      ],
      "name": "Sketchfab_model"
    },
    {
      "children": [
        2
      ],
      "matrix": [
        1.0,
        0.0,
        0.0,
        0.0,
        0.0,
        0.0,
        1.0,
        0.0,
        0.0,
        -1.0,
        0.0,
        0.0,
        0.0,
        0.0,
        0.0,
        1.0
      ],
      "name": "2e78e3e44df842c790676a898d565960.fbx"
    },
    {
      "children": [
        3,
        7
      ],
      "name": "RootNode"
    },
    {
      "children": [
        4,
        5
      ],
      "matrix": [
        57.40221023559482,
        1.0057894565035392e-19,
        -1.0036522016234767e-05,
        0.0,
        1.6351570833785356e-12,
        57.402210235594936,
        9.35200822455656e-06,
        0.0,
        1.0036522016234633e-05,
        -9.352008224556703e-06,
        57.40221023559406,
        0.0,
        -6.195976257324219,
        46.161380767822266,
        93.11000061035156,
        1.0
      ],
      "name": "teapot"
    },
    {
      "mesh": 0,
      "name": "teapot_ceramic_0"
    },
    {
      "children": [
        6
      ],
      "matrix": [
        0.9534807801246643,
        -3.185003563720403e-17,
        2.1913710451187905e-14,
        0.0,
        7.137278018048834e-15,
        -0.9010386833381597,
        -0.31185752600012945,
        0.0,
        2.0718858625263478e-14,
        0.31185752600012945,
        -0.9010386833381597,
        0.0,
        0.007018737494945526,
        1.158550500869751,
        0.24001526832580566,
        1.0
      ],
      "name": "teapot_lid"
    },
    {
      "mesh": 1,
      "name": "teapot_lid_ceramic_0"
    },
    {
      "children": [
        8,
        9
      ],
      "matrix": [
        62.63548278808498,
        3.1933222209378727e-20,
        -1.0951536524812951e-05,
        0.0,
        8.883061756560279e-14,
        3.118400096893269,
        5.080518797119993e-07,
        0.0,
        1.0951536524812805e-05,
        -1.020461575756706e-05,
        62.63548278808415,
        0.0,
        2.694453001022339,
        -21.047082901000977,
        -80.96728515625,
        1.0
      ],
      "name": "saucer"
    },
    {
      "mesh": 2,
      "name": "saucer_ceramic_0"
    },
    {
      "children": [
        10
      ],
      "matrix": [
        0.17586958408355713,
        3.398674694134427e-21,
        0.0,
        0.0,
        -6.82650153352562e-20,
        3.5324769020080566,
        5.708720909476461e-13,
        0.0,
        5.492487517720071e-34,
        -2.84217108802044e-14,
        0.17586958408355713,
        0.0,
        3.0782073736190796e-05,
        8.489167213439941,
        0.18325459957122803,
        1.0
      ],
      "name": "cup"
    },
    {
      "mesh": 3,
      "name": "cup_ceramic_0"
    }
  ],
  "samplers": [
    {
      "magFilter": 9729,
      "minFilter": 9987,
      "wrapS": 10497,
      "wrapT": 10497
    }
  ],
  "scene": 0,
  "scenes": [
    {
      "name": "Sketchfab_Scene",
      "nodes": [
        0
      ]
    }
  ],
  "textures": [
    {
      "sampler": 0,
      "source": 0
    },
    {
      "sampler": 0,
      "source": 1
    },
    {
      "sampler": 0,
      "source": 2
    }
  ]
}
